<?xml version="1.0" encoding="UTF-8" standalone="no"?>
<!-- Created with Inkscape (http://www.inkscape.org/) -->

<svg
   xmlns:dc="http://purl.org/dc/elements/1.1/"
   xmlns:cc="http://creativecommons.org/ns#"
   xmlns:rdf="http://www.w3.org/1999/02/22-rdf-syntax-ns#"
   xmlns:svg="http://www.w3.org/2000/svg"
   xmlns="http://www.w3.org/2000/svg"
   xmlns:sodipodi="http://sodipodi.sourceforge.net/DTD/sodipodi-0.dtd"
   xmlns:inkscape="http://www.inkscape.org/namespaces/inkscape"
   width="100mm"
   height="100mm"
   viewBox="0 0 354.3307 354.33071"
   id="svg3524"
   version="1.1"
   inkscape:version="0.91 r13725"
   sodipodi:docname="odu_logo.svg">
  <defs
     id="defs3526">
    <clipPath
       clipPathUnits="userSpaceOnUse"
       id="clipPath40">
      <path
         d="m 0,297.86 136.063,0 L 136.063,0 0,0 0,297.86 Z"
         id="path42"
         inkscape:connector-curvature="0" />
    </clipPath>
  </defs>
  <sodipodi:namedview
     id="base"
     pagecolor="#ffffff"
     bordercolor="#666666"
     borderopacity="1.0"
     inkscape:pageopacity="0.0"
     inkscape:pageshadow="2"
     inkscape:zoom="1.4"
     inkscape:cx="247.78668"
     inkscape:cy="198.56503"
     inkscape:document-units="px"
     inkscape:current-layer="g36"
     showgrid="false"
     inkscape:window-width="2560"
     inkscape:window-height="1387"
     inkscape:window-x="0"
     inkscape:window-y="0"
     inkscape:window-maximized="1"
     height="100mm" />
  <metadata
     id="metadata3529">
    <rdf:RDF>
      <cc:Work
         rdf:about="">
        <dc:format>image/svg+xml</dc:format>
        <dc:type
           rdf:resource="http://purl.org/dc/dcmitype/StillImage" />
        <dc:title></dc:title>
      </cc:Work>
    </rdf:RDF>
  </metadata>
  <g
     inkscape:label="Layer 1"
     inkscape:groupmode="layer"
     id="layer1"
     transform="translate(0,-698.0315)">
    <g
       transform="matrix(1.25,0,0,-1.25,45.790621,442.1868)"
       id="g36">
      <g
         id="g38"
         clip-path="url(#clipPath40)" />
      <g
         id="g44"
         transform="matrix(3.9029196,0,0,3.9029196,73.002763,-282.65655)">
        <path
           d="M 0,0 C -0.011,1.413 -0.563,2.821 -1.608,3.851 -2.653,4.879 -4.055,5.395 -5.453,5.369 -6.836,5.357 -8.229,4.82 -9.288,3.745 c -1.059,-1.075 -1.574,-2.476 -1.564,-3.86 -0.003,-1.398 0.534,-2.792 1.578,-3.82 1.045,-1.029 2.462,-1.56 3.875,-1.548 1.368,0.026 2.747,0.547 3.821,1.638 C -0.505,-2.755 -0.005,-1.368 0,0 M -5.485,7.548 C -3.547,7.578 -1.572,6.857 -0.087,5.396 1.412,3.919 2.148,1.971 2.164,0.017 2.148,-1.907 1.443,-3.867 -0.034,-5.366 c -1.476,-1.5 -3.424,-2.236 -5.348,-2.281 -1.969,-0.03 -3.913,0.69 -5.413,2.167 -1.484,1.461 -2.251,3.41 -2.236,5.364 0.015,1.924 0.721,3.883 2.198,5.382 1.477,1.5 3.424,2.237 5.348,2.282"
           style="fill:#231f20;fill-opacity:1;fill-rule:nonzero;stroke:none"
           id="path46"
           inkscape:connector-curvature="0" />
      </g>
      <g
         id="g48"
         transform="matrix(3.9029196,0,0,3.9029196,86.84408,-346.34754)">
        <path
           d="m 0,0 c 2.455,-2.417 5.545,-1.761 7.395,0.118 1.849,1.878 2.471,4.994 0.017,7.41 L 5.39,9.519 C 5.252,9.655 5.031,9.653 4.896,9.516 L -2.026,2.485 C -2.162,2.348 -2.16,2.126 -2.022,1.991 L 0,0 Z M 8.918,9.058 C 12.387,5.642 11.519,1.277 8.909,-1.374 6.3,-4.024 1.963,-4.945 -1.506,-1.53 l -2.879,2.835 c -0.51,0.502 -0.516,1.321 -0.014,1.831 l 8.6,8.736 c 0.506,0.513 1.331,0.519 1.844,0.014 L 8.918,9.058 Z"
           style="fill:#231f20;fill-opacity:1;fill-rule:nonzero;stroke:none"
           id="path50"
           inkscape:connector-curvature="0" />
      </g>
      <g
         id="g52"
         transform="matrix(3.9029196,0,0,3.9029196,236.56122,-425.64469)">
        <path
           d="m 0,0 -13.946,13.893 0.006,0.005 -0.616,0.607 c -0.513,0.505 -1.339,0.498 -1.844,-0.015 l -6.377,-6.477 c -1.148,-1.166 -2.987,-0.519 -4.093,0.57 -1.12,1.103 -1.811,2.917 -0.663,4.083 l 6.547,6.649 c 0.42,0.427 0.414,1.113 -0.013,1.533 -0.426,0.42 -1.112,0.415 -1.532,-0.012 l -6.532,-6.634 c -2.133,-2.166 -1.176,-5.315 0.687,-7.149 1.817,-1.789 5.011,-2.727 7.129,-0.576 l 5.658,5.747 c 0.132,0.134 0.349,0.135 0.483,0.002 L -3.128,0.293 -62.823,0.316 -45.246,18.068 c 0.389,0.392 0.385,1.026 -0.008,1.414 -0.392,0.388 -1.024,0.386 -1.414,-0.007 L -65.931,0.021 c -0.283,-0.287 -0.367,-0.716 -0.212,-1.088 0.156,-0.372 0.519,-0.616 0.923,-0.616 l 64.514,-0.025 c 0.404,0 0.769,0.244 0.924,0.618 C 0.373,-0.716 0.286,-0.285 0,0"
           style="fill:#231f20;fill-opacity:1;fill-rule:nonzero;stroke:none"
           id="path54"
           inkscape:connector-curvature="0" />
      </g>
      <g
         id="g56"
         transform="matrix(3.9029196,0,0,3.9029196,182.15493,-298.75025)">
        <path
           d="M 0,0 9.25,0.072"
           style="fill:none;stroke:#231f20;stroke-width:2;stroke-linecap:round;stroke-linejoin:round;stroke-miterlimit:10;stroke-dasharray:none;stroke-opacity:1"
           id="path58"
           inkscape:connector-curvature="0" />
      </g>
      <g
         id="g60"
         transform="matrix(3.9029196,0,0,3.9029196,156.11893,-319.99148)">
        <path
           d="M 0,0 9.25,0.072"
           style="fill:none;stroke:#231f20;stroke-width:2;stroke-linecap:round;stroke-linejoin:round;stroke-miterlimit:10;stroke-dasharray:none;stroke-opacity:1"
           id="path62"
           inkscape:connector-curvature="0" />
      </g>
    </g>
  </g>
</svg>
